<svg id="Capa_1" enable-background="new 0 0 480 480" height="512" viewBox="0 0 480 480" width="512" xmlns="http://www.w3.org/2000/svg"><g><path d="m32 280c-17.665-.02-31.98-14.335-32-32v-208c.02-17.665 14.335-31.98 32-32h208c17.673 0 32 14.327 32 32s-14.327 32-32 32h-176v176c-.02 17.665-14.335 31.98-32 32zm0-256c-8.832.01-15.99 7.168-16 16v208c0 8.837 7.163 16 16 16s16-7.163 16-16v-184c0-4.418 3.582-8 8-8h184c8.837 0 16-7.163 16-16s-7.163-16-16-16z"/><path d="m128 376c-17.665-.02-31.98-14.335-32-32v-207.833c.023-17.654 14.32-31.963 31.974-32l208-.167c17.673-.014 32.012 14.301 32.026 31.974s-14.301 32.012-31.974 32.026l-176.026.141v175.859c-.02 17.665-14.335 31.98-32 32zm208-256-208.013.167c-8.827.018-15.976 7.173-15.987 16v207.833c0 8.837 7.163 16 16 16s16-7.163 16-16v-183.853c0-4.416 3.577-7.996 7.993-8l184.02-.147c8.837-.004 15.997-7.17 15.993-16.007s-7.169-15.997-16.006-15.993z"/><path d="m240 472c-17.665-.02-31.98-14.335-32-32v-208c.02-17.665 14.335-31.98 32-32h208c17.673 0 32 14.327 32 32s-14.327 32-32 32h-176v176c-.02 17.665-14.335 31.98-32 32zm0-256c-8.832.01-15.99 7.168-16 16v208c0 8.837 7.163 16 16 16s16-7.163 16-16v-184c0-4.418 3.582-8 8-8h184c8.837 0 16-7.163 16-16s-7.163-16-16-16z"/></g></svg>